<svg width="38" height="42" viewBox="0 0 38 42" fill="none" xmlns="http://www.w3.org/2000/svg">
<path d="M35.9293 26.9437H2.37695C1.33008 26.9437 0.479492 26.1059 0.479492 25.0746V2.09061C0.479492 1.05936 1.33008 0.221466 2.37695 0.221466H28.3395C33.5738 0.221466 37.8398 4.42381 37.8398 9.58006V25.0875C37.8398 26.1059 36.9762 26.9437 35.9293 26.9437ZM4.27441 23.2055H34.0318V9.56717C34.0318 6.47342 31.4801 3.95975 28.3395 3.95975H4.27441V23.2055Z" fill="#2D527C"/>
<path d="M2.37695 41.3554C1.33008 41.3554 0.479492 40.5175 0.479492 39.4863V35.3871C0.479492 34.3558 1.33008 33.5179 2.37695 33.5179C3.42383 33.5179 4.27441 34.3558 4.27441 35.3871V39.4863C4.27441 40.5175 3.42383 41.3554 2.37695 41.3554Z" fill="#2D527C"/>
<path d="M35.9293 41.3554C34.8824 41.3554 34.0319 40.5176 34.0319 39.4863V23.8758C34.0319 22.8445 34.8824 22.0066 35.9293 22.0066C36.9762 22.0066 37.8268 22.8445 37.8268 23.8758V39.4863C37.8399 40.5176 36.9762 41.3554 35.9293 41.3554Z" fill="#2D527C"/>
<path d="M27.5412 41.3554C26.4943 41.3554 25.6437 40.5175 25.6437 39.4863V35.3871C25.6437 34.3558 26.4943 33.5179 27.5412 33.5179C28.5881 33.5179 29.4387 34.3558 29.4387 35.3871V39.4863C29.4387 40.5175 28.5881 41.3554 27.5412 41.3554Z" fill="#2D527C"/>
<path d="M19.1531 41.3554C18.1063 41.3554 17.2557 40.5175 17.2557 39.4863V35.3871C17.2557 34.3558 18.1063 33.5179 19.1531 33.5179C20.2 33.5179 21.0506 34.3558 21.0506 35.3871V39.4863C21.0506 40.5175 20.2 41.3554 19.1531 41.3554Z" fill="#2D527C"/>
<path d="M10.765 41.3554C9.71814 41.3554 8.86755 40.5175 8.86755 39.4863V35.3871C8.86755 34.3558 9.71814 33.5179 10.765 33.5179C11.8119 33.5179 12.6625 34.3558 12.6625 35.3871V39.4863C12.6625 40.5175 11.8119 41.3554 10.765 41.3554Z" fill="#2D527C"/>
</svg>
